<svg width="32" height="32" viewBox="0 0 32 32" fill="none" xmlns="http://www.w3.org/2000/svg">
<path d="M26.6136 11.9467C25.7203 10.96 24.3736 10.3867 22.507 10.1867V9.17333C22.507 7.34667 21.7336 5.58667 20.3736 4.36C19.0003 3.10667 17.2136 2.52 15.3603 2.69333C12.1736 3 9.49365 6.08 9.49365 9.41333V10.1867C7.62698 10.3867 6.28031 10.96 5.38698 11.9467C4.09365 13.3867 4.13365 15.3067 4.28031 16.64L5.21365 24.0667C5.49365 26.6667 6.54698 29.3333 12.2803 29.3333H19.7203C25.4536 29.3333 26.507 26.6667 26.787 24.08L27.7203 16.6267C27.867 15.3067 27.8936 13.3867 26.6136 11.9467ZM15.547 4.54667C16.8803 4.42667 18.147 4.84 19.1336 5.73333C20.107 6.61333 20.6536 7.86667 20.6536 9.17333V10.1067H11.347V9.41333C11.347 7.04 13.307 4.76 15.547 4.54667ZM11.227 17.5333H11.2136C10.4803 17.5333 9.88031 16.9333 9.88031 16.2C9.88031 15.4667 10.4803 14.8667 11.2136 14.8667C11.9603 14.8667 12.5603 15.4667 12.5603 16.2C12.5603 16.9333 11.9603 17.5333 11.227 17.5333ZM20.5603 17.5333H20.547C19.8136 17.5333 19.2136 16.9333 19.2136 16.2C19.2136 15.4667 19.8136 14.8667 20.547 14.8667C21.2936 14.8667 21.8936 15.4667 21.8936 16.2C21.8936 16.9333 21.2936 17.5333 20.5603 17.5333Z" fill="#42B1B3"/>
</svg>
