<svg width="14" height="16" viewBox="0 0 14 16" fill="none" xmlns="http://www.w3.org/2000/svg">
<path d="M12.9698 6.21999C12.4673 5.66499 11.7098 5.34249 10.6598 5.22999V4.65999C10.6598 3.63249 10.2248 2.64249 9.45981 1.95249C8.68731 1.24749 7.68231 0.917486 6.63981 1.01499C4.84731 1.18749 3.33981 2.91999 3.33981 4.79499V5.22999C2.28981 5.34249 1.53231 5.66499 1.02981 6.21999C0.302309 7.02999 0.324809 8.10999 0.407309 8.85999L0.932309 13.0375C1.08981 14.5 1.68231 16 4.90731 16H9.09231C12.3173 16 12.9098 14.5 13.0673 13.045L13.5923 8.85249C13.6748 8.10999 13.6898 7.02999 12.9698 6.21999ZM6.74481 2.05749C7.49481 1.98999 8.20731 2.22249 8.76231 2.72499C9.30981 3.21999 9.61731 3.92499 9.61731 4.65999V5.18499H4.38231V4.79499C4.38231 3.45999 5.48481 2.17749 6.74481 2.05749ZM4.31481 9.36249H4.30731C3.89481 9.36249 3.55731 9.02499 3.55731 8.61249C3.55731 8.19999 3.89481 7.86249 4.30731 7.86249C4.72731 7.86249 5.06481 8.19999 5.06481 8.61249C5.06481 9.02499 4.72731 9.36249 4.31481 9.36249ZM9.56481 9.36249H9.55731C9.14481 9.36249 8.80731 9.02499 8.80731 8.61249C8.80731 8.19999 9.14481 7.86249 9.55731 7.86249C9.97731 7.86249 10.3148 8.19999 10.3148 8.61249C10.3148 9.02499 9.97731 9.36249 9.56481 9.36249Z" fill="#3D7475"/>
</svg>
