<svg width="21" height="22" viewBox="0 0 21 22" fill="none" xmlns="http://www.w3.org/2000/svg">
<path d="M9.9049 3.125H4.45365C2.7124 3.125 1.8374 4.00875 1.8374 5.7675V19.75H6.5624V16.4688C6.5624 16.11 6.8599 15.8125 7.21865 15.8125C7.5774 15.8125 7.8749 16.1012 7.8749 16.4688V19.75H12.5124V5.7675C12.5124 4.00875 11.6462 3.125 9.9049 3.125ZM9.40615 11.6562H5.0749C4.71615 11.6562 4.41865 11.3588 4.41865 11C4.41865 10.6413 4.71615 10.3438 5.0749 10.3438H9.40615C9.7649 10.3438 10.0624 10.6413 10.0624 11C10.0624 11.3588 9.7649 11.6562 9.40615 11.6562ZM9.40615 8.375H5.0749C4.71615 8.375 4.41865 8.0775 4.41865 7.71875C4.41865 7.36 4.71615 7.0625 5.0749 7.0625H9.40615C9.7649 7.0625 10.0624 7.36 10.0624 7.71875C10.0624 8.0775 9.7649 8.375 9.40615 8.375Z" fill="#6CA1A2"/>
<path d="M20.125 19.0937H18.1388V16.4687C18.97 16.1975 19.5738 15.4187 19.5738 14.5V12.75C19.5738 11.6037 18.6375 10.6675 17.4912 10.6675C16.345 10.6675 15.4088 11.6037 15.4088 12.75V14.5C15.4088 15.41 16.0037 16.18 16.8175 16.46V19.0937H0.875C0.51625 19.0937 0.21875 19.3912 0.21875 19.75C0.21875 20.1087 0.51625 20.4062 0.875 20.4062H17.4388C17.4563 20.4062 17.465 20.415 17.4825 20.415C17.5 20.415 17.5088 20.4062 17.5263 20.4062H20.125C20.4837 20.4062 20.7812 20.1087 20.7812 19.75C20.7812 19.3912 20.4837 19.0937 20.125 19.0937Z" fill="#6CA1A2"/>
</svg>
