<svg width="21" height="21" viewBox="0 0 21 21" fill="none" xmlns="http://www.w3.org/2000/svg">
<path d="M9.66875 13.0812L8.05 14.7C7.70875 15.0412 7.16625 15.0412 6.81625 14.7087C6.72 14.6125 6.62375 14.525 6.5275 14.4287C5.62625 13.5187 4.8125 12.565 4.08625 11.5675C3.36875 10.57 2.79125 9.5725 2.37125 8.58375C1.96 7.58625 1.75 6.6325 1.75 5.7225C1.75 5.1275 1.855 4.55875 2.065 4.03375C2.275 3.5 2.6075 3.01 3.07125 2.5725C3.63125 2.02125 4.24375 1.75 4.89125 1.75C5.13625 1.75 5.38125 1.8025 5.6 1.9075C5.8275 2.0125 6.02875 2.17 6.18625 2.3975L8.21625 5.25875C8.37375 5.4775 8.4875 5.67875 8.56625 5.87125C8.645 6.055 8.68875 6.23875 8.68875 6.405C8.68875 6.615 8.6275 6.825 8.505 7.02625C8.39125 7.2275 8.225 7.4375 8.015 7.6475L7.35 8.33875C7.25375 8.435 7.21 8.54875 7.21 8.68875C7.21 8.75875 7.21875 8.82 7.23625 8.89C7.2625 8.96 7.28875 9.0125 7.30625 9.065C7.46375 9.35375 7.735 9.73 8.12 10.185C8.51375 10.64 8.93375 11.1037 9.38875 11.5675C9.47625 11.655 9.5725 11.7425 9.66 11.83C10.01 12.1712 10.0188 12.7312 9.66875 13.0812Z" fill="#6CA1A2"/>
<path d="M19.2237 16.0389C19.2237 16.2839 19.1799 16.5377 19.0924 16.7827C19.0662 16.8527 19.0399 16.9227 19.0049 16.9927C18.8562 17.3077 18.6637 17.6052 18.4099 17.8852C17.9812 18.3577 17.5087 18.6989 16.9749 18.9177C16.9662 18.9177 16.9574 18.9264 16.9487 18.9264C16.4324 19.1364 15.8724 19.2502 15.2687 19.2502C14.3762 19.2502 13.4224 19.0402 12.4162 18.6114C11.4099 18.1827 10.4037 17.6052 9.40615 16.8789C9.0649 16.6252 8.72365 16.3714 8.3999 16.1002L11.2612 13.2389C11.5062 13.4227 11.7249 13.5627 11.9087 13.6589C11.9524 13.6764 12.0049 13.7027 12.0662 13.7289C12.1362 13.7552 12.2062 13.7639 12.2849 13.7639C12.4337 13.7639 12.5474 13.7114 12.6437 13.6152L13.3087 12.9589C13.5274 12.7402 13.7374 12.5739 13.9387 12.4689C14.1399 12.3464 14.3412 12.2852 14.5599 12.2852C14.7262 12.2852 14.9012 12.3202 15.0937 12.3989C15.2862 12.4777 15.4874 12.5914 15.7062 12.7402L18.6024 14.7964C18.8299 14.9539 18.9874 15.1377 19.0837 15.3564C19.1712 15.5752 19.2237 15.7939 19.2237 16.0389Z" fill="#6CA1A2"/>
</svg>
