<svg width="20" height="21" viewBox="0 0 20 21" fill="none" xmlns="http://www.w3.org/2000/svg">
<path d="M14.166 8.83341H15.8327C17.4993 8.83341 18.3327 8.00008 18.3327 6.33341V4.66675C18.3327 3.00008 17.4993 2.16675 15.8327 2.16675H14.166C12.4993 2.16675 11.666 3.00008 11.666 4.66675V6.33341C11.666 8.00008 12.4993 8.83341 14.166 8.83341Z" stroke="#18181B" stroke-width="1.5" stroke-miterlimit="10" stroke-linecap="round" stroke-linejoin="round"/>
<path d="M4.16602 18.8334H5.83268C7.49935 18.8334 8.33268 18.0001 8.33268 16.3334V14.6667C8.33268 13.0001 7.49935 12.1667 5.83268 12.1667H4.16602C2.49935 12.1667 1.66602 13.0001 1.66602 14.6667V16.3334C1.66602 18.0001 2.49935 18.8334 4.16602 18.8334Z" stroke="#18181B" stroke-width="1.5" stroke-miterlimit="10" stroke-linecap="round" stroke-linejoin="round"/>
<path d="M4.99935 8.83341C6.8403 8.83341 8.33268 7.34103 8.33268 5.50008C8.33268 3.65913 6.8403 2.16675 4.99935 2.16675C3.1584 2.16675 1.66602 3.65913 1.66602 5.50008C1.66602 7.34103 3.1584 8.83341 4.99935 8.83341Z" stroke="#18181B" stroke-width="1.5" stroke-miterlimit="10" stroke-linecap="round" stroke-linejoin="round"/>
<path d="M14.9993 18.8334C16.8403 18.8334 18.3327 17.341 18.3327 15.5001C18.3327 13.6591 16.8403 12.1667 14.9993 12.1667C13.1584 12.1667 11.666 13.6591 11.666 15.5001C11.666 17.341 13.1584 18.8334 14.9993 18.8334Z" stroke="#18181B" stroke-width="1.5" stroke-miterlimit="10" stroke-linecap="round" stroke-linejoin="round"/>
</svg>
