<svg width="21" height="22" viewBox="0 0 21 22" fill="none" xmlns="http://www.w3.org/2000/svg">
<path d="M10.5 2.25C5.67875 2.25 1.75 6.17875 1.75 11C1.75 15.8212 5.67875 19.75 10.5 19.75C15.3212 19.75 19.25 15.8212 19.25 11C19.25 6.17875 15.3212 2.25 10.5 2.25ZM14.3063 14.1237C14.1838 14.3337 13.965 14.4475 13.7375 14.4475C13.6237 14.4475 13.51 14.4213 13.405 14.3512L10.6925 12.7325C10.0188 12.33 9.52 11.4462 9.52 10.6675V7.08C9.52 6.72125 9.8175 6.42375 10.1763 6.42375C10.535 6.42375 10.8325 6.72125 10.8325 7.08V10.6675C10.8325 10.9825 11.095 11.4462 11.3663 11.6037L14.0788 13.2225C14.3938 13.4062 14.4988 13.8088 14.3063 14.1237Z" fill="#6CA1A2"/>
</svg>
