<svg width="32" height="32" viewBox="0 0 32 32" fill="none" xmlns="http://www.w3.org/2000/svg">
<path d="M28.2812 11.0523C28.6404 11.6441 28.1632 12.3334 27.4709 12.3334H3.66601C3.11373 12.3334 2.66602 11.8856 2.66602 11.3334V8.56002C2.66602 5.30669 5.30602 2.66669 8.55935 2.66669H11.6527C13.826 2.66669 14.506 3.37335 15.3727 4.53335L17.2393 7.01335C17.6527 7.56002 17.706 7.62669 18.4793 7.62669H22.1993C24.7749 7.62669 27.0335 8.99726 28.2812 11.0523Z" fill="#3D7475"/>
<path d="M29.3094 15.3299C29.3075 14.779 28.8604 14.3333 28.3094 14.3333L3.66602 14.3333C3.11373 14.3333 2.66602 14.781 2.66602 15.3333V22.2C2.66602 26.1333 5.86602 29.3333 9.79935 29.3333H22.1993C26.1327 29.3333 29.3327 26.1333 29.3327 22.2L29.3094 15.3299ZM19.386 22.6266L16.5194 25.1333C16.3727 25.2666 16.186 25.3333 15.9993 25.3333C15.8127 25.3333 15.626 25.2666 15.4793 25.1333L12.6127 22.6266C11.706 21.8266 11.586 20.4666 12.346 19.52C13.106 18.56 14.4794 18.3866 15.466 19.12L15.9993 19.52L16.5327 19.12C17.5193 18.3866 18.8927 18.56 19.6527 19.52C20.4127 20.4666 20.2927 21.8266 19.386 22.6266Z" fill="#3D7475"/>
</svg>
