<?xml version="1.0" standalone="no"?>
<!DOCTYPE svg PUBLIC "-//W3C//DTD SVG 20010904//EN"
 "http://www.w3.org/TR/2001/REC-SVG-20010904/DTD/svg10.dtd">
<svg version="1.0" xmlns="http://www.w3.org/2000/svg"
 width="30.000000pt" height="30.000000pt" viewBox="0 0 30.000000 30.000000"
 preserveAspectRatio="xMidYMid meet">

<g transform="translate(0.000000,30.000000) scale(0.100000,-0.100000)"
fill="#42B1B3" stroke="none">
<path d="M85 185 c33 -30 62 -55 65 -55 3 0 32 25 65 55 l60 54 -125 0 -125 0
60 -54z"/>
<path d="M10 141 l0 -81 140 0 140 0 0 81 0 81 -49 -41 c-26 -22 -54 -47 -61
-56 -18 -22 -43 -18 -71 11 -13 14 -41 39 -61 56 l-38 30 0 -81z"/>
</g>
</svg>
