<svg width="32" height="32" viewBox="0 0 32 32" fill="none" xmlns="http://www.w3.org/2000/svg">
<path d="M16.0003 2.66666C12.507 2.66666 9.66699 5.50666 9.66699 9C9.66699 12.4267 12.347 15.2 15.8403 15.32C15.947 15.3067 16.0537 15.3067 16.1337 15.32C16.1603 15.32 16.1737 15.32 16.2003 15.32C16.2137 15.32 16.2137 15.32 16.227 15.32C19.6403 15.2 22.3203 12.4267 22.3337 9C22.3337 5.50666 19.4937 2.66666 16.0003 2.66666Z" fill="#42B1B3"/>
<path d="M22.7733 18.8667C19.0533 16.3867 12.9866 16.3867 9.23995 18.8667C7.54661 20 6.61328 21.5333 6.61328 23.1733C6.61328 24.8133 7.54661 26.3333 9.22661 27.4533C11.0933 28.7067 13.5466 29.3333 15.9999 29.3333C18.4533 29.3333 20.9066 28.7067 22.7733 27.4533C24.4533 26.32 25.3866 24.8 25.3866 23.1467C25.3733 21.5067 24.4533 19.9867 22.7733 18.8667Z" fill="#15B79E"/>
</svg>
