<svg width="18" height="19" viewBox="0 0 18 19" fill="none" xmlns="http://www.w3.org/2000/svg">
<path d="M5.90969 9.5525C5.90969 9.245 6.16469 8.99 6.47219 8.99H10.5822V2.645C10.5747 2.285 10.2897 2 9.92969 2C5.51219 2 2.42969 5.0825 2.42969 9.5C2.42969 13.9175 5.51219 17 9.92969 17C10.2822 17 10.5747 16.715 10.5747 16.355V10.1075H6.47219C6.15719 10.115 5.90969 9.86 5.90969 9.5525Z" fill="#3D7475"/>
<path d="M15.4042 9.155L13.2742 7.0175C13.0567 6.8 12.6967 6.8 12.4792 7.0175C12.2617 7.235 12.2617 7.595 12.4792 7.8125L13.6492 8.9825H10.5742V10.1075H13.6417L12.4717 11.2775C12.2542 11.495 12.2542 11.855 12.4717 12.0725C12.5842 12.185 12.7267 12.2375 12.8692 12.2375C13.0117 12.2375 13.1542 12.185 13.2667 12.0725L15.3967 9.935C15.6217 9.725 15.6217 9.3725 15.4042 9.155Z" fill="#3D7475"/>
</svg>
