<svg version="1.2" xmlns="http://www.w3.org/2000/svg" viewBox="0 0 391 95" width="391" height="95">
	<title>カスタムサイトロゴ_校了-ai</title>
	<style>
		.s0 { fill: #b48b34 } 
		.s1 { fill: #bf9534 } 
		.s2 { fill: #63a99d } 
	</style>
	<g id="レイヤー 1">
		<g id="&lt;Group&gt;">
			<g id="&lt;Group&gt;">
				<g id="&lt;Group&gt;">
					<path id="&lt;Path&gt;" class="s0" d="m20.4 41c-4.4-1.9-13.9-9.4-16.1-11.6-2.2-2.1-4.1-3.9-4-1.7 0.1 2.2 3.4 11 7.9 13 3.8 1.7 13.1 3.2 15.2 3 2.1-0.2 1.4-0.7-3-2.7z"/>
					<g id="&lt;Group&gt;">
						<path id="&lt;Path&gt;" class="s1" d="m40.3 45.8c-0.3-1.9-0.7-4.1-1.1-6.4-1.4-8.3-2.9-17.8-7-20.9q-1.8-1.4-4.2-0.8-2.8 0.7-4.2 4c-2.3 5.4-1.1 14.2 0 16.8 3 7.3 12.6 9.3 13 9.4q0 0 0 0 0.2 0 0.3-0.2c0-0.1 0-0.3-0.1-0.4-0.1 0-6.7-4.2-8.9-8.9-1.5-3.2-1.8-7.3-0.7-9.7 0.5-1.3 1.3-2 2.4-2.2 2.8-0.5 8.2 13.9 10 19.5 0.1 0.1 0.2 0.2 0.4 0.1 0.1 0 0.2-0.2 0.1-0.3z"/>
						<path id="&lt;Path&gt;" class="s1" d="m56.3 3.3c-2.4-2.7-5.4-3.7-8.4-2.7-4.5 1.4-8.2 6.4-9.9 13.5-3 12.7 1.8 31.6 1.9 31.8 0 0.2 0.1 0.2 0.3 0.2 0.1 0 0.2-0.2 0.2-0.3-0.1-0.3-2-25.6 3.8-32.2q1.6-1.8 3.8-1.5c1.2 0.2 2.2 1 2.8 2.3 3.8 7.5-3.8 30.6-3.9 30.8 0 0.2 0 0.4 0.1 0.4q0.1 0.1 0.2 0.1 0.1-0.1 0.2-0.2c12.1-23.4 14.7-35.6 8.9-42.2z"/>
						<path id="&lt;Path&gt;" class="s1" d="m71.9 16.8c-2.2-2.2-5.2-2.5-8.3-0.8-4.1 2.2-8.1 7.8-11.9 16.5-2.8 6.4-4.5 12.3-4.5 12.3 0 0.2 0 0.3 0.1 0.4 0.1 0 0.3 0 0.3-0.2 0.1-0.2 9.7-20.7 15.1-19.1q0.9 0.2 1.1 1.1c1.2 4.4-9.1 18.1-9.2 18.3-0.1 0.1-0.1 0.2 0 0.3q0 0.1 0.1 0.1 0.1 0 0.2 0c0.7-0.7 17.7-15.6 19.1-20.9 0.7-2.8-0.1-6-2.1-8z"/>
					</g>
					<path id="&lt;Path&gt;" class="s0" d="m104.7 42.7c-3-6.7-5.8-9.9-6.9-11l6.2-0.9c0.1 0 0.2-0.1 0.2-0.2 0-0.1-0.1-0.3-0.2-0.3-21.7-12.7-43.4 12.7-43.6 12.9-0.1 0.1-0.1 0.3 0 0.4 0.1 0.1 0.2 0.2 0.3 0.1 25.2-18 43.4-0.8 43.6-0.6q0.1 0 0.2 0 0.1 0 0.1 0c0.1-0.1 0.1-0.3 0.1-0.4z"/>
				</g>
				<path id="&lt;Path&gt;" class="s2" d="m78.9 43l-27.4 9.2c-2.6 0.8-2.8 1-5.3 0.5-2.6-0.6-32.8-7-32.8-7-0.9-0.2-1.5 0.3-1.2 1.1l3.7 12.6c0.2 0.8 1.2 1.6 2.2 1.7l29.6 3.5c1.6 0.2 1.9 0.1 3.2-0.5q0.1 0 0.2-0.1l1-0.5q0 0 0 0l25.5-12.9c0.8-0.4 1.6-1.4 1.8-2.3l0.9-4.3c0.1-0.9-0.5-1.4-1.4-1z"/>
				<path id="&lt;Path&gt;" class="s1" d="m77.2 54l-25.6 12.9q-0.1 0-0.2 0.1c-1.6 0.8-2.3 0.7-3.6 0.6l-29.2-3.5c-1-0.2-1.6 0.4-1.3 1.3l0.7 2.5c0.3 0.8 1.2 1.8 2.1 2.1 0 0 26.9 9.1 28.5 9.6 1.5 0.5 2.6 0.5 3.7 0 1.1-0.5 21.7-9.4 21.7-9.4 0.8-0.4 1.7-1.4 1.8-2.3l2.6-13.2c0.2-0.8-0.4-1.2-1.2-0.7z"/>
				<path id="&lt;Path&gt;" class="s2" d="m73.6 73.8l-20.9 9.1c-1.3 0.5-2.5 0.6-3.9 0.1l-28.1-9.5c-0.9-0.3-1.4 0.2-1.2 1l2.4 8c0.3 0.9 1.2 1.8 2.1 2.2l26 9.4q0.2 0.1 0.4 0.1c0.7 0.2 1.3 0.1 2.1-0.3q0.2 0 0.5-0.2l19.8-14.6c0.8-0.6 1.5-1.7 1.7-2.6l0.4-1.8c0.1-0.9-0.5-1.3-1.3-0.9z"/>
			</g>
			<g id="&lt;Group&gt;">
				<g id="&lt;Group&gt;">
					<g id="&lt;Group&gt;">
						<g id="&lt;Group&gt;">
							<path id="&lt;Compound Path&gt;" class="s2" d="m131.2 84.9c-0.6 0-0.8 0-1.2 0v-1.7c0.5 0.1 0.7 0.1 1.5 0.1h0.7c0.6 0 0.9 0 1.4-0.1 0 0.5-0.1 0.8-0.1 1.5v1.3c0 0.7 0 1 0.1 1.5-0.7 0.5-1.2 0.7-1.8 0.8-0.6 0.2-1.2 0.3-1.8 0.3-1.5 0-2.7-0.5-3.4-1.4-0.7-0.8-1.1-2.1-1.1-3.5 0-1.9 0.8-3.4 2.2-4.2q0.9-0.5 2.3-0.5c1.1 0 2.1 0.3 2.8 1 0.4 0.4 0.6 0.8 0.8 1.4l-1.9 0.5c-0.2-0.5-0.3-0.8-0.7-1-0.3-0.2-0.6-0.3-1.2-0.3-0.6 0-1.2 0.2-1.6 0.6q-0.8 0.9-0.8 2.5c0 1.1 0.3 2 0.8 2.5q0.6 0.7 1.8 0.7c0.7 0 1.2-0.1 1.8-0.4v-1.6z"/>
							<path id="&lt;Compound Path&gt;" class="s2" d="m138 81.7c0 0.4-0.1 0.8-0.1 1.6v3.5c0 0.7 0.1 1.1 0.1 1.6h-2c0.1-0.6 0.1-0.9 0.1-1.6v-3.5c0-0.7 0-1.2-0.1-1.6zm0-2.5v1.5h-2v-1.5z"/>
							<path id="&lt;Compound Path&gt;" class="s2" d="m141 83.1c-0.4 0-0.7 0.1-1.1 0.1v-1.6c0.3 0 0.7 0.1 1.1 0.1h0.5v-0.6c0-1.4 0.8-2.1 2.4-2.1 0.6 0 1 0.1 1.6 0.2l-0.3 1.4c-0.4-0.2-0.7-0.2-1.1-0.2-0.6 0-0.8 0.2-0.8 0.9v0.4h0.5c0.4 0 0.8 0 1.3-0.1v1.6c-0.4 0-0.7-0.1-1.3-0.1h-0.5v3.7c0 0.7 0 1.1 0.1 1.6h-2c0-0.6 0.1-0.9 0.1-1.6v-3.7z"/>
							<path id="&lt;Compound Path&gt;" class="s2" d="m150.1 79.9q-0.1 0.7-0.1 1.5v0.3h0.5c0.5 0 0.7 0 1.1-0.1v1.6c-0.4-0.1-0.6-0.1-1.1-0.1h-0.5v3.2c0 0.6 0.2 0.8 0.7 0.8 0.3 0 0.6-0.1 0.9-0.3l0.1 1.5c-0.4 0.2-0.8 0.2-1.4 0.2-1.5 0-2.1-0.5-2.1-1.7v-3.7h-0.4c-0.4 0-0.6 0-1 0.1v-1.6c0.3 0.1 0.6 0.1 1 0.1h0.4v-0.3c0-0.6 0-1 0-1.5z"/>
							<path id="&lt;Compound Path&gt;" fill-rule="evenodd" class="s2" d="m162.9 87.8c-0.6 0.5-1.2 0.7-2.1 0.7q-1.2 0-1.8-0.5c-0.4-0.4-0.7-0.9-0.7-1.5 0-1.1 0.8-1.9 2.2-2.2 0.7-0.1 1-0.2 2.4-0.2v-0.5q0-0.8-1.1-0.8c-0.4 0-0.9 0.1-1.1 0.3-0.2 0.1-0.3 0.3-0.4 0.6l-1.8-0.3c0.2-0.7 0.5-1 0.9-1.3q0.8-0.6 2.4-0.6c1.1 0 1.9 0.2 2.4 0.7 0.4 0.3 0.5 0.8 0.5 1.6v3.1c0 0.6 0 1 0.1 1.5h-1.9zm0-2.5c-1 0-1.5 0.1-2 0.2q-0.8 0.3-0.8 0.9c0 0.5 0.4 0.8 1 0.8 0.5 0 1-0.2 1.4-0.5 0.3-0.3 0.4-0.6 0.4-1z"/>
							<path id="&lt;Compound Path&gt;" class="s2" d="m167.2 88.4c0.1-0.5 0.1-0.9 0.1-1.6v-3.5c0-0.8 0-1.2-0.1-1.6h1.9v0.4q0 0.2 0 0.5c0.7-0.7 1.4-1.1 2.4-1.1 1.5 0 2.3 0.9 2.3 2.4v2.9c0 0.7 0 1.1 0.1 1.6h-2c0.1-0.6 0.1-1 0.1-1.6v-2.4c0-0.6-0.1-0.9-0.4-1.1q-0.2-0.2-0.6-0.2c-0.7 0-1.4 0.5-1.9 1.4v2.3c0 0.6 0 1 0.1 1.6z"/>
							<path id="&lt;Compound Path&gt;" fill-rule="evenodd" class="s2" d="m181.5 88c0-0.2 0-0.2 0-0.4-0.6 0.7-1.3 1-2.3 1q-1.4 0-2.2-0.8c-0.6-0.7-1-1.6-1-2.8 0-2.1 1.3-3.5 3.2-3.5 0.6 0 1.1 0.1 1.6 0.4 0.3 0.2 0.5 0.3 0.7 0.5v-0.1c0-0.2 0-0.3 0-0.5v-1c0-0.7 0-1.1-0.1-1.6h1.9c0 0.5 0 0.9 0 1.6v5.9c0 0.8 0 1.1 0 1.7h-1.8zm-2-5c-1 0-1.6 0.8-1.6 2 0 0.7 0.2 1.3 0.5 1.7 0.3 0.2 0.8 0.4 1.2 0.4 0.4 0 0.9-0.2 1.2-0.4 0.4-0.4 0.7-1 0.7-1.7 0-1.2-0.8-2-2-2z"/>
							<path id="&lt;Compound Path&gt;" class="s2" d="m196.2 84.4c0.3 0.3 0.6 0.8 0.8 1.2 0-0.3-0.1-0.9-0.1-1.4v-3.4c0-0.7 0-1.1-0.1-1.6h2.1c-0.1 0.4-0.1 0.9-0.1 1.6v6c0 0.7 0 1.2 0.1 1.6h-2.2c-0.1-0.3-0.4-0.8-0.7-1.3l-2.6-3.9c-0.3-0.4-0.4-0.7-0.8-1.3 0.1 0.1 0.1 0.1 0.1 0.5 0 0.2 0 0.7 0 0.9v3.3c0 0.8 0 1.3 0.1 1.8h-2c0.1-0.4 0.1-1 0.1-1.8v-5.9c0-0.6 0-1-0.1-1.5h2.1c0.1 0.3 0.3 0.7 0.7 1.3z"/>
							<path id="&lt;Compound Path&gt;" fill-rule="evenodd" class="s2" d="m201.1 85c0-2.2 1.4-3.6 3.6-3.6 2.1 0 3.5 1.4 3.5 3.6 0 2.2-1.4 3.6-3.5 3.6-2.2 0-3.6-1.4-3.6-3.6zm1.8 0c0 1.3 0.7 2.2 1.8 2.2 1.1 0 1.7-0.8 1.7-2.2 0-1.3-0.6-2.1-1.7-2.1-1.1 0-1.8 0.8-1.8 2.1z"/>
							<path id="&lt;Compound Path&gt;" class="s2" d="m211.9 81.7c0 0.2 0.1 0.5 0.3 1l1.1 3.4c0.1 0.3 0.1 0.4 0.2 0.6 0-0.2 0.1-0.3 0.2-0.6l1.1-3.4c0.1-0.5 0.2-0.7 0.2-1h2.1q-0.2 0.5-0.5 1.1l-1.8 4.6c-0.2 0.5-0.2 0.7-0.3 1h-2c-0.1-0.3-0.2-0.5-0.4-1l-1.8-4.6c-0.1-0.2-0.3-0.7-0.5-1.1z"/>
							<path id="&lt;Compound Path&gt;" fill-rule="evenodd" class="s2" d="m220.5 85.5c0.1 0.5 0.2 0.8 0.4 1.1q0.5 0.6 1.3 0.6c0.8 0 1.3-0.4 1.6-1.1l1.6 0.5c-0.3 0.5-0.4 0.8-0.7 1.1-0.6 0.6-1.5 0.9-2.5 0.9-1 0-1.9-0.3-2.5-0.9-0.6-0.6-1-1.6-1-2.7 0-2.1 1.4-3.6 3.4-3.6 1.5 0 2.6 0.8 3.1 2.1 0.2 0.5 0.2 0.9 0.3 1.7 0 0.1 0 0.1 0 0.3zm3.2-1.3c-0.1-0.4-0.2-0.6-0.4-0.8-0.2-0.3-0.7-0.5-1.2-0.5q-1.2 0-1.6 1.3z"/>
							<path id="&lt;Compound Path&gt;" class="s2" d="m229.6 79.2c0 0.4-0.1 0.8-0.1 1.6v6c0 0.6 0.1 1 0.1 1.6h-2c0.1-0.5 0.1-0.9 0.1-1.6v-6c0-0.8 0-1.2-0.1-1.6z"/>
							<path id="&lt;Compound Path&gt;" class="s2" d="m234.8 79.9q-0.1 0.7-0.1 1.5v0.3h0.4c0.6 0 0.8 0 1.2-0.1v1.6c-0.4-0.1-0.6-0.1-1.1-0.1h-0.5v3.2c0 0.6 0.2 0.8 0.7 0.8 0.3 0 0.6-0.1 0.9-0.3l0.1 1.5c-0.4 0.2-0.8 0.2-1.4 0.2-1.5 0-2.1-0.5-2.1-1.7v-3.7h-0.4c-0.4 0-0.7 0-1 0.1v-1.6c0.3 0.1 0.6 0.1 1 0.1h0.4v-0.3c0-0.6 0-1-0.1-1.5z"/>
							<path id="&lt;Compound Path&gt;" class="s2" d="m238.5 83.1c-0.5-1-0.6-1.2-0.7-1.4h2.1c0 0.3 0.2 0.9 0.4 1.3l1.2 3 1.2-2.9c0.2-0.7 0.3-1 0.4-1.4h2.1c-0.1 0.1-0.1 0.1-0.3 0.5 0 0.1 0 0.1-0.4 0.9l-2.6 6c-0.4 1-1.1 1.4-2.3 1.4-0.4 0-0.8 0-1.3-0.2l0.2-1.5c0.4 0.1 0.6 0.2 0.9 0.2q0.6 0 0.9-0.6l0.3-0.6z"/>
							<path id="&lt;Compound Path&gt;" class="s2" d="m253.7 85.4c0.1 0.5 0.2 0.7 0.4 1 0.3 0.4 0.8 0.6 1.5 0.6 0.9 0 1.6-0.5 1.6-1.2q0-0.5-0.5-0.8c-0.3-0.2-0.7-0.4-1.9-0.6-1-0.3-1.3-0.4-1.8-0.7-0.6-0.5-1-1.2-1-2 0-1.7 1.4-2.7 3.5-2.7 1.3 0 2.3 0.4 2.9 1.1 0.3 0.4 0.5 0.7 0.6 1.4l-2 0.2c0-0.3-0.1-0.5-0.3-0.7-0.2-0.3-0.7-0.5-1.2-0.5-0.9 0-1.5 0.5-1.5 1.1q0 0.5 0.4 0.7c0.2 0.2 0.4 0.3 1 0.4 1.3 0.3 1.8 0.4 2.3 0.6 0.4 0.2 0.8 0.6 1.1 1q0.3 0.6 0.3 1.4c0 1.8-1.2 2.9-3.5 2.9-1.5 0-2.6-0.4-3.2-1.2-0.3-0.4-0.5-0.9-0.6-1.8z"/>
							<path id="&lt;Compound Path&gt;" fill-rule="evenodd" class="s2" d="m261.5 90.5c0-0.5 0-1 0-1.6v-5.6c0-0.7 0-1.1 0-1.6h1.8v0.4q0 0.1 0 0.3c0.6-0.6 1.3-0.9 2.3-0.9q1.4 0 2.3 0.8 0.9 0.9 0.9 2.6 0 1.8-1 2.7c-0.5 0.5-1.3 0.8-2.2 0.8-0.6 0-1.1-0.1-1.6-0.3-0.3-0.1-0.4-0.3-0.7-0.6 0 0.2 0 0.2 0 0.3 0 0.1 0 0.2 0 0.3v0.8c0 0.7 0 1.1 0.1 1.6zm5.5-5.6c0-1.2-0.7-2-1.7-2-1.1 0-1.9 0.9-1.9 2.1 0 1.1 0.8 2 1.9 2 1 0 1.7-0.8 1.7-2.1z"/>
							<path id="&lt;Compound Path&gt;" fill-rule="evenodd" class="s2" d="m272.4 85.5c0.1 0.5 0.2 0.8 0.4 1.1q0.5 0.6 1.3 0.6c0.8 0 1.3-0.4 1.6-1.1l1.6 0.5c-0.2 0.5-0.4 0.8-0.7 1.1-0.6 0.6-1.5 0.9-2.5 0.9-1 0-1.9-0.3-2.4-0.9-0.7-0.6-1-1.6-1-2.7 0-2.1 1.3-3.6 3.3-3.6 1.5 0 2.6 0.8 3.1 2.1 0.2 0.5 0.2 0.9 0.3 1.7 0 0.1 0 0.1 0 0.3zm3.2-1.3c-0.1-0.4-0.2-0.6-0.3-0.8-0.3-0.3-0.7-0.5-1.3-0.5q-1.2 0-1.5 1.3z"/>
							<path id="&lt;Compound Path&gt;" class="s2" d="m284.1 84c-0.1-0.3-0.1-0.5-0.3-0.7q-0.4-0.4-1.1-0.4c-1 0-1.6 0.8-1.6 2.1 0 1.3 0.6 2.2 1.7 2.2 0.5 0 0.9-0.2 1.2-0.6 0.1-0.1 0.1-0.3 0.2-0.6l1.7 0.4c-0.1 0.4-0.3 0.7-0.5 1-0.5 0.8-1.5 1.2-2.7 1.2-1 0-1.9-0.3-2.4-0.9-0.7-0.6-1-1.6-1-2.7 0-1 0.3-2 1-2.6 0.6-0.6 1.4-1 2.4-1 1.2 0 2.2 0.5 2.7 1.4 0.2 0.2 0.3 0.4 0.4 0.8z"/>
							<path id="&lt;Compound Path&gt;" class="s2" d="m290 81.7c0 0.4 0 0.8 0 1.6v3.5c0 0.7 0 1.1 0 1.6h-2c0.1-0.6 0.1-0.9 0.1-1.6v-3.5c0-0.7 0-1.2-0.1-1.6zm0-2.5v1.5h-1.9v-1.5z"/>
							<path id="&lt;Compound Path&gt;" fill-rule="evenodd" class="s2" d="m296.9 87.8c-0.7 0.5-1.3 0.7-2.2 0.7q-1.2 0-1.8-0.5c-0.4-0.4-0.7-0.9-0.7-1.5 0-1.1 0.8-1.9 2.2-2.2 0.7-0.1 1-0.2 2.5-0.2v-0.5q0-0.8-1.2-0.8c-0.4 0-0.8 0.1-1.1 0.3-0.2 0.1-0.3 0.3-0.4 0.6l-1.8-0.3c0.3-0.7 0.5-1 0.9-1.3q0.8-0.6 2.4-0.6c1.1 0 1.9 0.2 2.4 0.7 0.4 0.3 0.5 0.8 0.5 1.6v3.1c0 0.6 0 1 0.1 1.5h-1.8zm0-2.5c-1.1 0-1.6 0.1-2.1 0.2q-0.7 0.3-0.8 0.9c0 0.5 0.4 0.8 1 0.8 0.5 0 1-0.2 1.4-0.5 0.3-0.3 0.5-0.6 0.5-1z"/>
							<path id="&lt;Compound Path&gt;" class="s2" d="m303.1 79.2c0 0.4-0.1 0.8-0.1 1.6v6c0 0.6 0.1 1 0.1 1.6h-2c0.1-0.5 0.1-0.9 0.1-1.6v-6c0-0.8 0-1.2-0.1-1.6z"/>
							<path id="&lt;Compound Path&gt;" class="s2" d="m308.3 79.9q-0.1 0.7-0.1 1.5v0.3h0.5c0.5 0 0.7 0 1.1-0.1v1.6c-0.4-0.1-0.6-0.1-1.1-0.1h-0.5v3.2c0 0.6 0.2 0.8 0.7 0.8 0.3 0 0.6-0.1 0.9-0.3l0.1 1.5c-0.4 0.2-0.8 0.2-1.4 0.2-1.5 0-2.1-0.5-2.1-1.7v-3.7h-0.4c-0.4 0-0.6 0-1 0.1v-1.6c0.3 0.1 0.6 0.1 1 0.1h0.4v-0.3c0-0.6 0-1 0-1.5z"/>
							<path id="&lt;Compound Path&gt;" class="s2" d="m312 83.1c-0.5-1-0.6-1.2-0.7-1.4h2.1c0 0.3 0.2 0.9 0.4 1.3l1.2 3 1.2-2.9c0.2-0.7 0.4-1 0.4-1.4h2.1c-0.1 0.1-0.1 0.1-0.3 0.5 0 0.1 0 0.1-0.4 0.9l-2.5 6c-0.5 1-1.2 1.4-2.4 1.4-0.4 0-0.7 0-1.3-0.2l0.2-1.5c0.4 0.1 0.6 0.2 0.9 0.2q0.6 0 0.9-0.6l0.3-0.6z"/>
							<path id="&lt;Compound Path&gt;" class="s2" d="m327.3 85.4c0 0.5 0.1 0.7 0.3 1 0.3 0.4 0.8 0.6 1.5 0.6 1 0 1.6-0.5 1.6-1.2q0-0.5-0.5-0.8c-0.3-0.2-0.7-0.4-1.9-0.6-1-0.3-1.3-0.4-1.8-0.7-0.6-0.5-0.9-1.2-0.9-2 0-1.7 1.3-2.7 3.4-2.7 1.3 0 2.3 0.4 2.9 1.1 0.3 0.4 0.5 0.7 0.6 1.4l-2 0.2c0-0.3-0.1-0.5-0.3-0.7-0.2-0.3-0.7-0.5-1.2-0.5-0.9 0-1.5 0.5-1.5 1.1q0 0.5 0.4 0.7c0.2 0.2 0.5 0.3 1 0.4 1.3 0.3 1.8 0.4 2.3 0.6 0.4 0.2 0.9 0.6 1.1 1q0.4 0.6 0.4 1.4c0 1.8-1.3 2.9-3.6 2.9-1.5 0-2.6-0.4-3.2-1.2-0.3-0.4-0.5-0.9-0.6-1.8z"/>
							<path id="&lt;Compound Path&gt;" class="s2" d="m337.7 79.9q-0.1 0.7-0.1 1.5v0.3h0.4c0.6 0 0.8 0 1.2-0.1v1.6c-0.4-0.1-0.6-0.1-1.1-0.1h-0.5v3.2c0 0.6 0.2 0.8 0.7 0.8 0.3 0 0.6-0.1 0.9-0.3l0.1 1.5c-0.4 0.2-0.8 0.2-1.4 0.2-1.5 0-2.1-0.5-2.1-1.7v-3.7h-0.4c-0.4 0-0.7 0-1 0.1v-1.6c0.3 0.1 0.6 0.1 1 0.1h0.4v-0.3c0-0.6 0-1-0.1-1.5z"/>
							<path id="&lt;Compound Path&gt;" fill-rule="evenodd" class="s2" d="m341 85c0-2.2 1.4-3.6 3.5-3.6 2.2 0 3.5 1.4 3.5 3.6 0 2.2-1.4 3.6-3.5 3.6-2.2 0-3.5-1.4-3.5-3.6zm1.8 0c0 1.3 0.6 2.2 1.7 2.2 1.1 0 1.7-0.8 1.7-2.2 0-1.3-0.6-2.1-1.7-2.1-1.1 0-1.7 0.8-1.7 2.1z"/>
							<path id="&lt;Compound Path&gt;" class="s2" d="m354.9 83.4c-0.5-0.1-0.7-0.2-1.1-0.2q-0.8 0-1.3 0.6c-0.3 0.2-0.4 0.5-0.4 1v2c0 0.7 0 1.1 0.1 1.6h-2c0.1-0.6 0.1-0.9 0.1-1.6v-3.5c0-0.8 0-1.2-0.1-1.6h1.9v0.9q0.7-1.1 2.2-1.1c0.3 0 0.6 0.1 1.1 0.2z"/>
							<path id="&lt;Compound Path&gt;" fill-rule="evenodd" class="s2" d="m358.8 85.5c0 0.5 0.1 0.8 0.3 1.1q0.5 0.6 1.3 0.6c0.8 0 1.4-0.4 1.6-1.1l1.6 0.5c-0.2 0.5-0.4 0.8-0.7 1.1-0.6 0.6-1.4 0.9-2.5 0.9-1 0-1.8-0.3-2.4-0.9-0.7-0.6-1-1.6-1-2.7 0-2.1 1.3-3.6 3.4-3.6 1.4 0 2.5 0.8 3 2.1 0.2 0.5 0.3 0.9 0.3 1.7 0 0.1 0 0.1 0 0.3zm3.2-1.3c-0.1-0.4-0.1-0.6-0.3-0.8-0.3-0.3-0.7-0.5-1.2-0.5q-1.3 0-1.6 1.3z"/>
						</g>
						<path id="&lt;Path&gt;" class="s2" d="m120.5 84.5h-9.2v-1.3h9.2z"/>
						<path id="&lt;Path&gt;" class="s2" d="m378.7 84.5h-9.2v-1.3h9.2z"/>
					</g>
				</g>
				<g id="&lt;Group&gt;">
					<g id="&lt;Group&gt;">
						<path id="&lt;Compound Path&gt;" fill-rule="evenodd" class="s1" d="m385.6 64c-2.9 0-5.3-2.4-5.3-5.3 0-3 2.4-5.4 5.3-5.4 3 0 5.4 2.4 5.4 5.4 0 2.9-2.4 5.3-5.4 5.3zm0-9.7c-2.4 0-4.3 2-4.3 4.4 0 2.4 1.9 4.4 4.3 4.4 2.4 0 4.4-2 4.4-4.4 0-2.4-2-4.4-4.4-4.4z"/>
						<g id="&lt;Group&gt;">
							<path id="&lt;Compound Path&gt;" fill-rule="evenodd" class="s1" d="m386.9 61.6c0-0.2-0.1-0.5-0.4-1.1-0.2-0.6-0.3-0.8-0.5-1q-0.2-0.3-0.6-0.3h-0.9v1.4c0 0.5 0 0.7 0 1h-1.3c0-0.3 0.1-0.5 0.1-1v-4c0-0.4-0.1-0.6-0.1-1 0.3 0 0.6 0.1 1 0.1h1.8c1.2 0 1.8 0.5 1.8 1.6q0 0.7-0.4 1.1c-0.2 0.2-0.3 0.3-0.7 0.4 0.4 0.1 0.6 0.3 1.2 1.8 0.1 0.4 0.2 0.5 0.5 1zm-1.2-3.4c0.5 0 0.9-0.3 0.9-0.8q-0.1-0.7-0.8-0.7h-1.4v1.5z"/>
						</g>
					</g>
					<g id="&lt;Group&gt;">
						<path id="&lt;Compound Path&gt;" fill-rule="evenodd" class="s1" d="m131.5 50.5h-16.2l-2 4.4q-0.9 2.3-0.9 3.7 0 2 1.5 2.9 0.9 0.5 4.5 0.8v1.2h-15.2v-1.2q2.4-0.4 4-2.1 1.6-1.6 4-6.9l16.4-36.6h0.6l16.6 37.6q2.3 5.4 3.9 6.8 1.1 1 3.2 1.2v1.2h-22.2v-1.2h0.9q2.7 0 3.8-0.8 0.7-0.5 0.7-1.5 0-0.6-0.2-1.3 0-0.3-1-2.5zm-1.1-2.5l-6.9-15.8-7 15.8z"/>
						<path id="&lt;Compound Path&gt;" class="s1" d="m197.9 47.4l-1.8 16.1h-40.7v-1.2h1.5q2 0 3.2-0.7 0.9-0.5 1.4-1.6 0.3-0.9 0.3-4.3v-30.2q0-3.5-0.3-4.4-0.4-0.9-1.5-1.6-1.2-0.6-3.1-0.6h-1.5v-1.3h24.4v1.3h-1.9q-2 0-3.3 0.7-0.8 0.5-1.4 1.6-0.3 0.8-0.3 4.3v29.2q0 3.6 0.4 4.5 0.4 1 1.6 1.5 0.8 0.3 4.1 0.3h3.8q3.6 0 6.1-1.3 2.4-1.3 4.2-4.1 1.8-2.8 3.4-8.2z"/>
						<path id="&lt;Compound Path&gt;" class="s1" d="m211 18.9v-1.3h24.4v1.3h-1.5q-2 0-3.2 0.7-0.9 0.5-1.4 1.6-0.4 0.8-0.4 4.3v22.5q0 6.6-1.3 9.6-1.3 3-4.7 5-3.3 2-8.1 2-5.8 0-9.3-3.1-3.6-3-3.6-6.7 0-2.4 1.5-3.8 1.4-1.5 3.5-1.5 2.1 0 3.5 1.3 1.4 1.3 1.4 3.3 0 0.9-0.3 1.6-0.1 0.4-1 1.7-0.9 1.4-0.9 2 0 0.9 0.8 1.5 1.3 1 3.4 1 1.4 0 2.4-0.8 0.9-0.7 1.3-2.3 0.4-1.6 0.4-8.8v-24.5q0-3.5-0.4-4.4-0.4-0.9-1.5-1.6-1.1-0.6-3.1-0.6z"/>
						<path id="&lt;Compound Path&gt;" fill-rule="evenodd" class="s1" d="m260 50.5h-16.2l-1.9 4.4q-1 2.3-1 3.7 0 2 1.6 2.9 0.9 0.5 4.5 0.8v1.2h-15.3v-1.2q2.5-0.4 4.1-2.1 1.6-1.6 3.9-6.9l16.4-36.6h0.7l16.5 37.6q2.4 5.4 3.9 6.8 1.2 1 3.3 1.2v1.2h-22.3v-1.2h1q2.6 0 3.7-0.8 0.8-0.5 0.8-1.5 0-0.6-0.2-1.3-0.1-0.3-1.1-2.5zm-1.1-2.5l-6.8-15.8-7.1 15.8z"/>
						<path id="&lt;Compound Path&gt;" fill-rule="evenodd" class="s1" d="m298 42.6v12.9q0 3.7 0.5 4.7 0.5 0.9 1.6 1.5 1.2 0.6 4.3 0.6v1.2h-23.5v-1.2q3.2 0 4.3-0.6 1.2-0.6 1.6-1.5 0.5-1 0.5-4.7v-29.8q0-3.7-0.5-4.7-0.4-1-1.6-1.5-1.1-0.6-4.3-0.6v-1.3h21.3q8.4 0 12.2 1.2 3.9 1.1 6.3 4.2 2.5 3.1 2.5 7.3 0 5.1-3.7 8.4-2.3 2.1-6.5 3.1l11 15.6q2.2 3 3.1 3.7 1.4 1.1 3.2 1.2v1.2h-14.4l-14.8-20.9zm0-22.5v20.1h1.9q4.7 0 7-0.8 2.4-0.9 3.7-3.2 1.3-2.2 1.3-5.8 0-5.3-2.4-7.8-2.5-2.5-7.9-2.5z"/>
						<path id="&lt;Compound Path&gt;" fill-rule="evenodd" class="s1" d="m354.4 17q10.9-0.4 17.8 6.4 6.8 6.8 6.8 17 0 8.8-5.1 15.4-6.7 8.8-19.1 8.8-12.4 0-19.2-8.4-5.3-6.6-5.3-15.7 0-10.3 6.9-17.1 7-6.8 17.2-6.4zm0.4 2.2q-6.3 0-9.6 6.4-2.7 5.3-2.7 15.2 0 11.7 4.1 17.3 2.9 4 8.1 4 3.5 0 5.8-1.7 3-2.2 4.7-7 1.6-4.7 1.6-12.4 0-9.1-1.7-13.6-1.7-4.5-4.3-6.4-2.6-1.8-6-1.8z"/>
					</g>
				</g>
			</g>
		</g>
	</g>
</svg>