<svg width="18" height="20" viewBox="0 0 18 20" fill="none" xmlns="http://www.w3.org/2000/svg">
<mask id="mask0_488_22554" style="mask-type:alpha" maskUnits="userSpaceOnUse" x="0" y="0" width="18" height="20">
<path d="M7.33103 0.845002C8.36376 0.251536 9.63614 0.251536 10.6689 0.845001L16.131 3.98387C17.1638 4.57733 17.8 5.6741 17.8 6.86103V13.1388C17.8 14.3257 17.1638 15.4225 16.131 16.0159L10.6689 19.1548C9.63614 19.7483 8.36376 19.7483 7.33103 19.1548L1.86887 16.0159C0.836141 15.4225 0.199951 14.3257 0.199951 13.1388V6.86104C0.199951 5.6741 0.836139 4.57733 1.86887 3.98387L7.33103 0.845002Z" fill="#C4C4C4"/>
</mask>
<g mask="url(#mask0_488_22554)">
<rect width="11.1254" height="11.1254" transform="matrix(0.867035 0.498247 -0.867035 0.498247 9.00049 -0.279053)" fill="#FEC84B"/>
<rect width="10.2369" height="10.201" transform="matrix(0.867035 0.498247 -2.21338e-08 1 0.123535 5.34448)" fill="#FEDF89"/>
<rect width="10.2369" height="10.201" transform="matrix(0.867035 -0.498247 2.21338e-08 1 9.00049 10.4463)" fill="#FDB022"/>
</g>
</svg>
